<?xml version="1.0" encoding="utf-8"?>
<!-- Generator: Adobe Illustrator 26.0.2, SVG Export Plug-In . SVG Version: 6.00 Build 0)  -->
<svg version="1.1" id="Layer_1" xmlns="http://www.w3.org/2000/svg" xmlns:xlink="http://www.w3.org/1999/xlink" x="0px" y="0px"
	 viewBox="0 0 50.35 59.44" style="enable-background:new 0 0 50.35 59.44;" xml:space="preserve">
<style type="text/css">
	.st0{fill:#FFFFFF;}
	.st1{fill:#070706;}
	.st2{fill:#E0B993;}
	.st3{fill:#FBDEC1;}
	.st4{fill:#DFB992;}
	.st5{fill:#F1D9BC;}
	.st6{fill:#D9B38E;}
	.st7{fill:#29231C;}
	.st8{fill:none;stroke:#010101;stroke-width:11.9126;stroke-miterlimit:10;}
</style>
<g>
	<rect x="-68.62" y="133.31" class="st0" width="174.73" height="125.13"/>
	<g>
		<g>
			<path class="st1" d="M213.08,164.7c-8.35,10.92-16.8,21.97-25.69,33.59c14.12,10.95,24.42,23.97,22.82,43.17
				c-0.92,11.04-5.83,19.98-13.96,27.14c-16.62,14.65-45.15,15.27-62.91-9.51c-116.12,0-232.61,0-350.02,0
				c5.14-38.78,18.82-73.37,41.83-104.15c23.22-31.06,52.89-53.68,90.72-66.7c-18.93-29.02-27.47-60.47-26.15-94.8
				c-6.04-3.04-12.36-5.43-17.79-9.12c-9.03-6.15-18.57-12.11-25.96-19.98c-14.98-15.94-14.22-34.15,0.45-50.34
				c10.48-11.57,23.74-19.1,37.77-25.32c7.07-3.14,14.4-5.74,21.72-8.27c7.06-2.44,14.26-4.49,22.38-7.01
				c0-9.11-0.94-18.59,0.17-27.83c3.61-29.96,21.42-48.26,49.63-56.78c27.34-8.26,55.55-9.14,83.74-7.12
				c15.41,1.1,31.05,3.04,45.89,7.13c34.18,9.43,51.36,33,52.03,68.48c0.11,6.14,0.02,12.28,0.02,18.16
				c12.56,4.89,25.14,9.33,37.33,14.66c14.09,6.16,27.1,14.16,36.99,26.34c12,14.79,12.38,30.61,0.51,45.48
				c-4.13,5.18-9.29,9.67-14.5,13.81c-4.98,3.96-10.65,7.07-15.69,10.34c3.07,75.46-30.19,128.46-96.74,160.27
				c11.74,20.49,23.58,41.16,34.47,60.17c3-14.6,12.46-19.59,33.28-14.64c8.81-11.54,17.85-23.38,26.78-35.07
				c-24.17-40.34,5.03-96.11,51.73-99.77c25.06-1.97,43.11,18.11,41.28,45.9c-1.81,27.49-23.9,55.17-50.23,62.96
				C235.1,168.83,226.26,168.53,213.08,164.7z M188.93,32.03c-10.92,9.5-23.18,16.16-37.7,18.39c-8.51,1.3-15.37-1.44-18.62-9.21
				c-3.93-9.39-6.48-19.37-9.83-29.74c-11.42,1.51-24.62,3.25-37.83,4.99c5.6,32.45-6.3,58.26-39.94,67.34
				c-9.74,2.63-20.02,3.26-30.06,4.8c-19.54-3.69-22.78-8.14-26.6-36.59c-21.34-10.77-42.37-22.53-58.93-39.96
				c-9.94-10.46-22.7-11.6-35.33-17.14c0.12,57.49,22.11,102.78,69.61,133.1c52.45,33.48,107.53,34.28,161.47,3.41
				c42.33-24.23,66.11-62.1,72.53-110.64C194.77,24.53,191.85,28.28,188.93,32.03z M285.81,99.25
				c0.87-24.88-18.16-35.33-34.17-32.77c-29.48,4.72-53.34,36.95-49.76,66.57c1.99,16.42,16.01,27.47,32.23,25.41
				C261.65,154.97,285.63,127.49,285.81,99.25z M183.7,202.69c-1.89,3.45-4.1,6.71-5.55,10.28c-2.98,7.35-8.22,10.27-15.92,7.89
				c-3.29-1.01-6.34-2.79-9.47-4.29c-8.28-3.96-14.22-1.96-18.53,6.27c-3.7,7.07-3.52,14.41-1.6,21.9
				c4.12,16.03,17.47,28.02,32.57,29.17c16.67,1.28,31.07-7.1,37.67-21.92C210.55,234.73,203.34,215.48,183.7,202.69z M37.99,161.28
				c-19.03-3.46-37.82-6.88-55.89-10.16c6.5,11.78,13.52,24.49,20.75,37.56C15.19,179.05,26.93,169.9,37.99,161.28z M24.34,228.15
				c4.6-12.05,8.78-22.65,12.62-33.38c0.62-1.73,0.29-4.32-0.6-5.96c-2.51-4.61-5.54-8.93-8.58-13.7
				c-7.85,6.13-15.17,11.84-22.73,17.74C11.33,204.33,17.45,215.53,24.34,228.15z M53.15,173.61c-2.37,4.41-4.44,7.85-6.08,11.48
				c-1.27,2.81-3.42,6.26-2.71,8.73c3.25,11.46,7.36,22.67,11.61,35.27c4.88-14.13,9.3-26.92,13.82-39.99
				C64.39,184.07,59.15,179.19,53.15,173.61z M71.44,184.26c3.5-10.2,6.72-19.6,10.31-30.04c-12.6,1.93-24.16,3.7-36.83,5.64
				C54.06,168.27,62.39,175.93,71.44,184.26z M-26.47,15.3c6.05,11.13,16.16,10.12,22.55,13.19c7.61-3.94,14.09-7.29,20.96-10.84
				C3.11,16.9-10.6,16.16-26.47,15.3z M170.77,197.97c-0.19-0.94-0.38-1.87-0.58-2.81c-5.82,0.75-11.88,0.79-17.36,2.57
				c-2.46,0.8-5.06,5.05-5.2,7.85c-0.11,2.21,3.15,6.08,5.44,6.54c2.74,0.55,6.73-0.99,8.95-2.99
				C165.48,206.02,167.9,201.75,170.77,197.97z"/>
			<path class="st2" d="M188.93,32.03c2.92-3.75,5.85-7.49,8.77-11.24c-6.42,48.55-30.2,86.42-72.53,110.64
				C71.22,162.3,16.14,161.5-36.31,128.02C-83.8,97.7-105.8,52.41-105.92-5.08c12.63,5.53,25.39,6.68,35.33,17.14
				c16.57,17.43,37.59,29.19,58.93,39.96c3.82,28.45,7.06,32.9,26.6,36.59c13.2,12.54,28.41,21.59,46.07,26.23
				c6.65,1.75,13.44,2.98,20.16,4.44c-0.51,1.33-1.03,2.67-1.69,4.39c1.73,0.2,2.84,0.61,3.8,0.38c16.1-3.88,32.21-7.77,48.25-11.9
				c1.52-0.39,2.65-2.35,3.95-3.58c0.7-0.77,1.27-1.79,2.13-2.27c21.87-12.24,37.08-30.4,46.4-53.39
				C186.68,46.37,187.35,39.01,188.93,32.03z"/>
			<path class="st3" d="M188.93,32.03c-1.58,6.98-2.25,14.34-4.91,20.89c-9.32,22.99-24.53,41.15-46.4,53.39
				c-0.86,0.48-1.43,1.5-2.13,2.27c-3.33,0.01-6.8-0.57-9.97,0.14c-14.82,3.33-29.57,7.01-44.34,10.57
				c-6.73-1.46-13.51-2.69-20.16-4.44c-17.66-4.65-32.87-13.69-46.07-26.23c10.03-1.55,20.31-2.17,30.06-4.8
				c33.64-9.08,45.54-34.89,39.94-67.34c13.21-1.74,26.41-3.48,37.83-4.99c3.36,10.37,5.9,20.35,9.83,29.74
				c3.25,7.76,10.1,10.51,18.62,9.21C165.74,48.19,178.01,41.53,188.93,32.03z"/>
			<path class="st4" d="M183.7,202.69c19.64,12.8,26.86,32.04,19.17,49.3c-6.6,14.82-21,23.2-37.67,21.92
				c-15.1-1.16-28.45-13.14-32.57-29.17c-1.93-7.49-2.1-14.83,1.6-21.9c4.31-8.23,10.25-10.23,18.53-6.27
				c3.13,1.5,6.19,3.27,9.47,4.29c7.7,2.38,12.94-0.54,15.92-7.89C179.59,209.4,181.8,206.14,183.7,202.69z"/>
			<path class="st5" d="M-26.47,15.3c15.87,0.86,29.58,1.6,43.51,2.35C10.16,21.21,3.68,24.56-3.92,28.5
				C-10.31,25.43-20.43,26.43-26.47,15.3z"/>
			<path class="st6" d="M170.77,197.97c-2.86,3.78-5.29,8.05-8.75,11.17c-2.22,2-6.21,3.54-8.95,2.99c-2.3-0.46-5.55-4.33-5.44-6.54
				c0.14-2.8,2.74-7.05,5.2-7.85c5.48-1.79,11.54-1.82,17.36-2.57C170.38,196.1,170.58,197.04,170.77,197.97z"/>
			<path class="st7" d="M81.18,119.28c14.77-3.56,29.52-7.24,44.34-10.57c3.17-0.71,6.64-0.13,9.97-0.14
				c-1.31,1.23-2.43,3.18-3.95,3.58c-16.04,4.12-32.15,8.02-48.25,11.9c-0.95,0.23-2.07-0.19-3.8-0.38
				C80.16,121.94,80.67,120.61,81.18,119.28z"/>
		</g>
		<path class="st8" d="M64.07,112.69c6.56,2.87,20.85,8.05,39.24,6.17c21.09-2.16,35.37-12.37,40.92-16.82"/>
	</g>
</g>
</svg>
